<?xml version="1.0" encoding="utf-8"?>
<!-- Generator: Adobe Illustrator 25.2.3, SVG Export Plug-In . SVG Version: 6.00 Build 0)  -->
<svg version="1.1" id="Ebene_1" xmlns="http://www.w3.org/2000/svg" xmlns:xlink="http://www.w3.org/1999/xlink" x="0px" y="0px"
	 viewBox="0 0 512 512" style="enable-background:new 0 0 512 512;" xml:space="preserve">
<style type="text/css">
	.st0{fill:#6C757D;}
</style>
<path class="st0" d="M99.65,287.77H15.5c-8.84,0-16-7.16-16-16v-32c0-8.84,7.16-16,16-16h84.15c8.84,0,16,7.16,16,16v32
	C115.65,280.6,108.48,287.77,99.65,287.77z"/>
<path class="st0" d="M99.65,186.43H15.5c-8.84,0-16-7.16-16-16v-32c0-8.84,7.16-16,16-16h84.15c8.84,0,16,7.16,16,16v32
	C115.65,179.27,108.48,186.43,99.65,186.43z"/>
<path class="st0" d="M99.65,389.1H15.5c-8.84,0-16-7.16-16-16v-32c0-8.84,7.16-16,16-16h84.15c8.84,0,16,7.16,16,16v32
	C115.65,381.94,108.48,389.1,99.65,389.1z"/>
<path class="st0" d="M231.79,287.77h-84.15c-8.84,0-16-7.16-16-16v-32c0-8.84,7.16-16,16-16h84.15c8.84,0,16,7.16,16,16v32
	C247.79,280.6,240.63,287.77,231.79,287.77z"/>
<path class="st0" d="M231.79,186.43h-84.15c-8.84,0-16-7.16-16-16v-32c0-8.84,7.16-16,16-16h84.15c8.84,0,16,7.16,16,16v32
	C247.79,179.27,240.63,186.43,231.79,186.43z"/>
<path class="st0" d="M231.79,389.1h-84.15c-8.84,0-16-7.16-16-16v-32c0-8.84,7.16-16,16-16h84.15c8.84,0,16,7.16,16,16v32
	C247.79,381.94,240.63,389.1,231.79,389.1z"/>
<path class="st0" d="M363.94,287.77h-84.15c-8.84,0-16-7.16-16-16v-32c0-8.84,7.16-16,16-16h84.15c8.84,0,16,7.16,16,16v32
	C379.94,280.6,372.78,287.77,363.94,287.77z"/>
<path class="st0" d="M363.94,186.43h-84.15c-8.84,0-16-7.16-16-16v-32c0-8.84,7.16-16,16-16h84.15c8.84,0,16,7.16,16,16v32
	C379.94,179.27,372.78,186.43,363.94,186.43z"/>
<path class="st0" d="M363.94,389.1h-84.15c-8.84,0-16-7.16-16-16v-32c0-8.84,7.16-16,16-16h84.15c8.84,0,16,7.16,16,16v32
	C379.94,381.94,372.78,389.1,363.94,389.1z"/>
<path class="st0" d="M496.09,288h-84.15c-8.84,0-16-7.16-16-16v-32c0-8.84,7.16-16,16-16h84.15c8.84,0,16,7.16,16,16v32
	C512.09,280.84,504.93,288,496.09,288z"/>
<path class="st0" d="M496.09,186.67h-84.15c-8.84,0-16-7.16-16-16v-32c0-8.84,7.16-16,16-16h84.15c8.84,0,16,7.16,16,16v32
	C512.09,179.5,504.93,186.67,496.09,186.67z"/>
<path class="st0" d="M496.09,389.33h-84.15c-8.84,0-16-7.16-16-16v-32c0-8.84,7.16-16,16-16h84.15c8.84,0,16,7.16,16,16v32
	C512.09,382.17,504.93,389.33,496.09,389.33z"/>
</svg>
