<?xml version="1.0" encoding="utf-8"?>
<!-- Generator: Adobe Illustrator 25.2.3, SVG Export Plug-In . SVG Version: 6.00 Build 0)  -->
<svg version="1.1" id="Ebene_1" xmlns="http://www.w3.org/2000/svg" xmlns:xlink="http://www.w3.org/1999/xlink" x="0px" y="0px"
	 viewBox="0 0 512 512" style="enable-background:new 0 0 512 512;" xml:space="preserve">
<style type="text/css">
	.st0{fill:#6C757D;}
</style>
<path class="st0" d="M144.3,288H15.97c-8.84,0-16-7.16-16-16v-32c0-8.84,7.16-16,16-16H144.3c8.84,0,16,7.16,16,16v32
	C160.3,280.84,153.14,288,144.3,288z"/>
<path class="st0" d="M144.3,186.67H15.97c-8.84,0-16-7.16-16-16v-32c0-8.84,7.16-16,16-16H144.3c8.84,0,16,7.16,16,16v32
	C160.3,179.5,153.14,186.67,144.3,186.67z"/>
<path class="st0" d="M144.3,389.33H15.97c-8.84,0-16-7.16-16-16v-32c0-8.84,7.16-16,16-16H144.3c8.84,0,16,7.16,16,16v32
	C160.3,382.17,153.14,389.33,144.3,389.33z"/>
<path class="st0" d="M320.64,288H192.3c-8.84,0-16-7.16-16-16v-32c0-8.84,7.16-16,16-16h128.33c8.84,0,16,7.16,16,16v32
	C336.64,280.84,329.47,288,320.64,288z"/>
<path class="st0" d="M320.64,186.67H192.3c-8.84,0-16-7.16-16-16v-32c0-8.84,7.16-16,16-16h128.33c8.84,0,16,7.16,16,16v32
	C336.64,179.5,329.47,186.67,320.64,186.67z"/>
<path class="st0" d="M320.64,389.33H192.3c-8.84,0-16-7.16-16-16v-32c0-8.84,7.16-16,16-16h128.33c8.84,0,16,7.16,16,16v32
	C336.64,382.17,329.47,389.33,320.64,389.33z"/>
<path class="st0" d="M496.97,288H368.64c-8.84,0-16-7.16-16-16v-32c0-8.84,7.16-16,16-16h128.33c8.84,0,16,7.16,16,16v32
	C512.97,280.84,505.81,288,496.97,288z"/>
<path class="st0" d="M496.97,186.67H368.64c-8.84,0-16-7.16-16-16v-32c0-8.84,7.16-16,16-16h128.33c8.84,0,16,7.16,16,16v32
	C512.97,179.5,505.81,186.67,496.97,186.67z"/>
<path class="st0" d="M496.97,389.33H368.64c-8.84,0-16-7.16-16-16v-32c0-8.84,7.16-16,16-16h128.33c8.84,0,16,7.16,16,16v32
	C512.97,382.17,505.81,389.33,496.97,389.33z"/>
</svg>
