<?xml version="1.0" encoding="utf-8"?>
<!-- Generator: Adobe Illustrator 25.2.3, SVG Export Plug-In . SVG Version: 6.00 Build 0)  -->
<svg version="1.1" id="Ebene_1" xmlns="http://www.w3.org/2000/svg" xmlns:xlink="http://www.w3.org/1999/xlink" x="0px" y="0px"
	 viewBox="0 0 512 512" style="enable-background:new 0 0 512 512;" xml:space="preserve">
<style type="text/css">
	.st0{fill:#6C757D;}
</style>
<path class="st0" d="M320.17,287.77H16c-8.84,0-16-7.16-16-16v-32c0-8.84,7.16-16,16-16h304.17c8.84,0,16,7.16,16,16v32
	C336.17,280.6,329,287.77,320.17,287.77z"/>
<path class="st0" d="M320.17,186.43H16c-8.84,0-16-7.16-16-16v-32c0-8.84,7.16-16,16-16h304.17c8.84,0,16,7.16,16,16v32
	C336.17,179.27,329,186.43,320.17,186.43z"/>
<path class="st0" d="M320.17,389.1H16c-8.84,0-16-7.16-16-16v-32c0-8.84,7.16-16,16-16h304.17c8.84,0,16,7.16,16,16v32
	C336.17,381.94,329,389.1,320.17,389.1z"/>
<path class="st0" d="M496.5,287.77H368.17c-8.84,0-16-7.16-16-16v-32c0-8.84,7.16-16,16-16H496.5c8.84,0,16,7.16,16,16v32
	C512.5,280.6,505.34,287.77,496.5,287.77z"/>
<path class="st0" d="M496.5,186.43H368.17c-8.84,0-16-7.16-16-16v-32c0-8.84,7.16-16,16-16H496.5c8.84,0,16,7.16,16,16v32
	C512.5,179.27,505.34,186.43,496.5,186.43z"/>
<path class="st0" d="M496.5,389.1H368.17c-8.84,0-16-7.16-16-16v-32c0-8.84,7.16-16,16-16H496.5c8.84,0,16,7.16,16,16v32
	C512.5,381.94,505.34,389.1,496.5,389.1z"/>
</svg>
