<?xml version="1.0" encoding="utf-8"?>
<!-- Generator: Adobe Illustrator 25.2.3, SVG Export Plug-In . SVG Version: 6.00 Build 0)  -->
<svg version="1.1" id="Ebene_1" xmlns="http://www.w3.org/2000/svg" xmlns:xlink="http://www.w3.org/1999/xlink" x="0px" y="0px"
	 viewBox="0 0 512 512" style="enable-background:new 0 0 512 512;" xml:space="preserve">
<style type="text/css">
	.st0{fill:#6C757D;}
</style>
<path class="st0" d="M143.83,288H15.5c-8.84,0-16-7.16-16-16v-32c0-8.84,7.16-16,16-16h128.33c8.84,0,16,7.16,16,16v32
	C159.83,280.84,152.67,288,143.83,288z"/>
<path class="st0" d="M143.83,186.67H15.5c-8.84,0-16-7.16-16-16v-32c0-8.84,7.16-16,16-16h128.33c8.84,0,16,7.16,16,16v32
	C159.83,179.5,152.67,186.67,143.83,186.67z"/>
<path class="st0" d="M143.83,389.33H15.5c-8.84,0-16-7.16-16-16v-32c0-8.84,7.16-16,16-16h128.33c8.84,0,16,7.16,16,16v32
	C159.83,382.17,152.67,389.33,143.83,389.33z"/>
<path class="st0" d="M496,288H191.83c-8.84,0-16-7.16-16-16v-32c0-8.84,7.16-16,16-16H496c8.84,0,16,7.16,16,16v32
	C512,280.84,504.84,288,496,288z"/>
<path class="st0" d="M496,186.67H191.83c-8.84,0-16-7.16-16-16v-32c0-8.84,7.16-16,16-16H496c8.84,0,16,7.16,16,16v32
	C512,179.5,504.84,186.67,496,186.67z"/>
<path class="st0" d="M496,389.33H191.83c-8.84,0-16-7.16-16-16v-32c0-8.84,7.16-16,16-16H496c8.84,0,16,7.16,16,16v32
	C512,382.17,504.84,389.33,496,389.33z"/>
</svg>
