<?xml version="1.0" encoding="utf-8"?>
<!-- Generator: Adobe Illustrator 25.2.3, SVG Export Plug-In . SVG Version: 6.00 Build 0)  -->
<svg version="1.1" id="Ebene_1" xmlns="http://www.w3.org/2000/svg" xmlns:xlink="http://www.w3.org/1999/xlink" x="0px" y="0px"
	 viewBox="0 0 512 512" style="enable-background:new 0 0 512 512;" xml:space="preserve">
<style type="text/css">
	.st0{fill:#6C757D;}
</style>
<path class="st0" d="M232,288H16c-8.84,0-16-7.16-16-16v-32c0-8.84,7.16-16,16-16h216c8.84,0,16,7.16,16,16v32
	C248,280.84,240.84,288,232,288z"/>
<path class="st0" d="M232,186.67H16c-8.84,0-16-7.16-16-16v-32c0-8.84,7.16-16,16-16h216c8.84,0,16,7.16,16,16v32
	C248,179.5,240.84,186.67,232,186.67z"/>
<path class="st0" d="M232,389.33H16c-8.84,0-16-7.16-16-16v-32c0-8.84,7.16-16,16-16h216c8.84,0,16,7.16,16,16v32
	C248,382.17,240.84,389.33,232,389.33z"/>
<path class="st0" d="M495.83,288h-216c-8.84,0-16-7.16-16-16v-32c0-8.84,7.16-16,16-16h216c8.84,0,16,7.16,16,16v32
	C511.83,280.84,504.67,288,495.83,288z"/>
<path class="st0" d="M495.83,186.67h-216c-8.84,0-16-7.16-16-16v-32c0-8.84,7.16-16,16-16h216c8.84,0,16,7.16,16,16v32
	C511.83,179.5,504.67,186.67,495.83,186.67z"/>
<path class="st0" d="M495.83,389.33h-216c-8.84,0-16-7.16-16-16v-32c0-8.84,7.16-16,16-16h216c8.84,0,16,7.16,16,16v32
	C511.83,382.17,504.67,389.33,495.83,389.33z"/>
</svg>
