<svg id="Ebene_1" data-name="Ebene 1" xmlns="http://www.w3.org/2000/svg" xmlns:xlink="http://www.w3.org/1999/xlink" viewBox="0 0 94.41 93.41"><defs><style>.cls-1{fill:url(#Unbenannter_Verlauf_7);}.cls-2{fill:url(#Unbenannter_Verlauf_6);}</style><linearGradient id="Unbenannter_Verlauf_7" x1="61.01" y1="77.43" x2="93.21" y2="109.33" gradientUnits="userSpaceOnUse"><stop offset="0" stop-color="#309"/><stop offset="0.87" stop-color="#60c"/></linearGradient><linearGradient id="Unbenannter_Verlauf_6" x1="50.86" y1="40.17" x2="127.33" y2="115.93" gradientUnits="userSpaceOnUse"><stop offset="0.13" stop-color="#60c"/><stop offset="1" stop-color="#309"/></linearGradient></defs><path class="cls-1" d="M87.79,91.09a6,6,0,0,1-6-6l0-17.91L61.07,88v17.87a6,6,0,0,0,6,6H84.9L105.66,91Z" transform="translate(-33.04 -46.43)"/><path class="cls-2" d="M126.5,54c0-3.21-3.5-7.46-6.71-7.52H72.2a6,6,0,0,0-4.31,1.75l-34,35a3,3,0,0,0,2,5.08L61.07,88,81.84,67.22H99.71a6,6,0,0,1,6,6V91L84.9,111.81,85.64,137a3,3,0,0,0,5.08,2l35-35a6,6,0,0,0,1.75-4.31Z" transform="translate(-33.04 -46.43)"/></svg>