<svg id="Ebene_1" data-name="Ebene 1" xmlns="http://www.w3.org/2000/svg" viewBox="0 0 321.27 65.7"><defs><style>.cls-1{fill:#B1A8B9;}</style></defs><path class="cls-1" d="M168.7,108.26a16.85,16.85,0,0,1-6.31-1.13,13,13,0,0,1-4.82-3.36,15.57,15.57,0,0,1-3.1-5.4,24.79,24.79,0,0,1-1.24-7.27c0-1-.08-1.83-.08-2.59s0-1.59.08-2.52a24,24,0,0,1,1.24-7.08,16.38,16.38,0,0,1,3.06-5.4A13.13,13.13,0,0,1,162.35,70a16.22,16.22,0,0,1,6.35-1.2A15,15,0,0,1,175,70a14.58,14.58,0,0,1,4.45,3.1V57.52a1.75,1.75,0,0,1,1.83-1.82h8.91a1.8,1.8,0,0,1,1.27.51,1.7,1.7,0,0,1,.55,1.31V105.7a1.71,1.71,0,0,1-.55,1.32,1.8,1.8,0,0,1-1.27.51h-8.25a1.75,1.75,0,0,1-1.83-1.83v-2.33a13.73,13.73,0,0,1-4.53,3.5A15.16,15.16,0,0,1,168.7,108.26Zm4-9.78a5.91,5.91,0,0,0,6-3.8,10.61,10.61,0,0,0,.76-3.65c0-1,.08-1.9.08-2.77s0-1.78-.08-2.7a8.79,8.79,0,0,0-.8-3.4,6.15,6.15,0,0,0-2.19-2.55,6.63,6.63,0,0,0-3.79-1,6.47,6.47,0,0,0-3.84,1,5.43,5.43,0,0,0-2,2.78,15.56,15.56,0,0,0-.73,3.86,24.48,24.48,0,0,0,0,4.53,15.74,15.74,0,0,0,.73,3.87,5.41,5.41,0,0,0,2,2.77A6.4,6.4,0,0,0,172.65,98.48Zm45.47,9.78q-8.61,0-13.72-4.67t-5.33-13.87V87.16a21.25,21.25,0,0,1,2.59-9.89A15.72,15.72,0,0,1,208.23,71a21.31,21.31,0,0,1,9.82-2.15,20.17,20.17,0,0,1,10.62,2.55A16.29,16.29,0,0,1,235,78.33a22.71,22.71,0,0,1,2.11,10v1.75a1.7,1.7,0,0,1-.54,1.31,1.79,1.79,0,0,1-1.28.52H211.92v.51a12.16,12.16,0,0,0,.73,3.87,6,6,0,0,0,2,2.77,5.54,5.54,0,0,0,3.36,1,5.75,5.75,0,0,0,2.45-.47,6.52,6.52,0,0,0,1.64-1.1,10.51,10.51,0,0,0,1-1.06,3.89,3.89,0,0,1,1.06-.91,3.34,3.34,0,0,1,1.28-.18h9.05a1.78,1.78,0,0,1,1.2.4,1.25,1.25,0,0,1,.41,1.13,6.58,6.58,0,0,1-1.25,3,15.23,15.23,0,0,1-3.39,3.46,18.45,18.45,0,0,1-5.58,2.81A25.28,25.28,0,0,1,218.12,108.26Zm-6.2-23.58h12.34v-.15a11.16,11.16,0,0,0-.7-4.09,5.73,5.73,0,0,0-2.11-2.7,6,6,0,0,0-3.4-.94,5.65,5.65,0,0,0-3.32.94,6.07,6.07,0,0,0-2.08,2.7,10.55,10.55,0,0,0-.73,4.09Zm45.78,13a8.73,8.73,0,0,1-4.56-1.24,9.35,9.35,0,0,1-3.32-3.32,9.08,9.08,0,0,1,0-9.16,9.59,9.59,0,0,1,3.32-3.29,8.82,8.82,0,0,1,4.56-1.24,8.73,8.73,0,0,1,4.6,1.24A9.77,9.77,0,0,1,265.59,84a9.08,9.08,0,0,1,0,9.16,9.51,9.51,0,0,1-3.29,3.32A8.64,8.64,0,0,1,257.7,97.67Zm22.18,23.73a1.76,1.76,0,0,1-1.83-1.83V71.39a1.76,1.76,0,0,1,1.83-1.82h8.25a1.84,1.84,0,0,1,1.28.51,1.73,1.73,0,0,1,.54,1.31v2.7a13.45,13.45,0,0,1,4.46-3.76,14.35,14.35,0,0,1,6.86-1.49A17,17,0,0,1,307.69,70a12.81,12.81,0,0,1,4.75,3.32,16.13,16.13,0,0,1,3.1,5.33,24,24,0,0,1,1.28,7.23c.05,1,.07,1.87.07,2.7s0,1.73-.07,2.7a24.22,24.22,0,0,1-1.24,7.08,15.57,15.57,0,0,1-3.07,5.33,13.44,13.44,0,0,1-4.78,3.39,16.18,16.18,0,0,1-6.46,1.21A14.27,14.27,0,0,1,295,107a11.78,11.78,0,0,1-4.42-3.61v16.2a1.75,1.75,0,0,1-1.82,1.83Zm17.45-22.92a6.38,6.38,0,0,0,3.87-1,5.68,5.68,0,0,0,2-2.77,14.44,14.44,0,0,0,.77-3.87,34.24,34.24,0,0,0,0-4.53,14.29,14.29,0,0,0-.77-3.86,5.71,5.71,0,0,0-2-2.78,7.72,7.72,0,0,0-7.74,0,6,6,0,0,0-2.12,2.74,11,11,0,0,0-.73,3.65c-.05.92-.07,1.82-.07,2.7s0,1.8.07,2.77a9,9,0,0,0,.8,3.4,6.27,6.27,0,0,0,2.19,2.55A6.53,6.53,0,0,0,297.33,98.48Zm28.61,9a1.75,1.75,0,0,1-1.82-1.83V71.39a1.8,1.8,0,0,1,.51-1.27,1.7,1.7,0,0,1,1.31-.55h8.4a1.7,1.7,0,0,1,1.31.55,1.8,1.8,0,0,1,.51,1.27v2.92a13.66,13.66,0,0,1,4.71-3.5A14.75,14.75,0,0,1,347,69.57h3.21a1.82,1.82,0,0,1,1.28.51,1.73,1.73,0,0,1,.55,1.31v7.52a1.88,1.88,0,0,1-1.83,1.83h-7.08A5.71,5.71,0,0,0,336.89,87V105.7a1.71,1.71,0,0,1-.55,1.32,1.89,1.89,0,0,1-1.35.51Zm48.47.73q-8.61,0-13.72-4.67t-5.33-13.87V87.16A21.25,21.25,0,0,1,358,77.27,15.72,15.72,0,0,1,364.52,71a21.31,21.31,0,0,1,9.82-2.15A20.17,20.17,0,0,1,385,71.39a16.29,16.29,0,0,1,6.32,6.94,22.71,22.71,0,0,1,2.11,10v1.75a1.7,1.7,0,0,1-.54,1.31,1.81,1.81,0,0,1-1.28.52H368.21v.51a12.16,12.16,0,0,0,.73,3.87,6,6,0,0,0,2,2.77,5.54,5.54,0,0,0,3.36,1,5.75,5.75,0,0,0,2.45-.47,6.52,6.52,0,0,0,1.64-1.1,10.51,10.51,0,0,0,1-1.06,3.89,3.89,0,0,1,1.06-.91,3.34,3.34,0,0,1,1.28-.18h9a1.76,1.76,0,0,1,1.2.4,1.25,1.25,0,0,1,.41,1.13,6.47,6.47,0,0,1-1.25,3,15.23,15.23,0,0,1-3.39,3.46,18.4,18.4,0,0,1-5.59,2.81A25.17,25.17,0,0,1,374.41,108.26Zm-6.2-23.58h12.34v-.15a11.16,11.16,0,0,0-.7-4.09,5.73,5.73,0,0,0-2.11-2.7,6,6,0,0,0-3.4-.94,5.65,5.65,0,0,0-3.32.94,6.07,6.07,0,0,0-2.08,2.7,10.55,10.55,0,0,0-.73,4.09Zm47.67,23.58a27,27,0,0,1-8.07-1.06,18.87,18.87,0,0,1-5.4-2.59,11.69,11.69,0,0,1-3.1-3.18,6.27,6.27,0,0,1-1.1-2.81,1.57,1.57,0,0,1,.51-1.35,1.84,1.84,0,0,1,1.24-.55h8.33a.8.8,0,0,1,.36.08,3.13,3.13,0,0,1,.44.29,12.93,12.93,0,0,1,1.9,1.28,10.68,10.68,0,0,0,2.19,1.35,6.93,6.93,0,0,0,3,.58,6.83,6.83,0,0,0,3.43-.8A2.63,2.63,0,0,0,421,97.09a2.89,2.89,0,0,0-.66-1.94,6.58,6.58,0,0,0-2.66-1.49,38.56,38.56,0,0,0-6-1.46A30.15,30.15,0,0,1,405,89.9a11.05,11.05,0,0,1-4.38-3.72,9.89,9.89,0,0,1-1.53-5.59A9.6,9.6,0,0,1,401,75a13.72,13.72,0,0,1,5.54-4.42,21.13,21.13,0,0,1,9-1.71,24.62,24.62,0,0,1,7.34,1,18.85,18.85,0,0,1,5.25,2.52,12.88,12.88,0,0,1,3.25,3.14,5.93,5.93,0,0,1,1.17,2.92,1.7,1.7,0,0,1-1.6,1.83h-7.6a1.7,1.7,0,0,1-.58-.11,2.42,2.42,0,0,1-.51-.26,8.62,8.62,0,0,1-1.75-1.17,11.09,11.09,0,0,0-2.05-1.31,6.49,6.49,0,0,0-2.92-.58,4.8,4.8,0,0,0-3.06.87,2.78,2.78,0,0,0-1.1,2.26,2.84,2.84,0,0,0,.62,1.76,5.54,5.54,0,0,0,2.56,1.46,53.42,53.42,0,0,0,6,1.46,22.68,22.68,0,0,1,8,2.59,10.84,10.84,0,0,1,4.23,4.16,10.61,10.61,0,0,1,1.24,5,9.87,9.87,0,0,1-2.08,6.2,13.22,13.22,0,0,1-6.16,4.2A29,29,0,0,1,415.88,108.26Zm40.37,0a27,27,0,0,1-8.07-1.06,18.74,18.74,0,0,1-5.4-2.59,11.69,11.69,0,0,1-3.1-3.18,6.27,6.27,0,0,1-1.1-2.81,1.57,1.57,0,0,1,.51-1.35,1.82,1.82,0,0,1,1.24-.55h8.32a.81.81,0,0,1,.37.08,3.13,3.13,0,0,1,.44.29,12.93,12.93,0,0,1,1.9,1.28,10.88,10.88,0,0,0,2.18,1.35,7,7,0,0,0,3,.58,6.83,6.83,0,0,0,3.43-.8,2.63,2.63,0,0,0,1.39-2.41,2.89,2.89,0,0,0-.66-1.94A6.58,6.58,0,0,0,458,93.66a38.56,38.56,0,0,0-6-1.46,30.15,30.15,0,0,1-6.64-2.3A11.05,11.05,0,0,1,441,86.18a9.89,9.89,0,0,1-1.53-5.59A9.66,9.66,0,0,1,441.35,75a13.82,13.82,0,0,1,5.55-4.42,21.09,21.09,0,0,1,9-1.71,24.62,24.62,0,0,1,7.34,1,18.85,18.85,0,0,1,5.25,2.52,12.88,12.88,0,0,1,3.25,3.14,5.93,5.93,0,0,1,1.17,2.92,1.7,1.7,0,0,1-1.61,1.83h-7.59a1.7,1.7,0,0,1-.58-.11,2.42,2.42,0,0,1-.51-.26,8.62,8.62,0,0,1-1.75-1.17,11.09,11.09,0,0,0-2.05-1.31,6.49,6.49,0,0,0-2.92-.58,4.78,4.78,0,0,0-3.06.87,2.75,2.75,0,0,0-1.1,2.26,2.84,2.84,0,0,0,.62,1.76,5.54,5.54,0,0,0,2.56,1.46,52.87,52.87,0,0,0,6,1.46,22.68,22.68,0,0,1,8,2.59,10.9,10.9,0,0,1,4.23,4.16,10.61,10.61,0,0,1,1.24,5,9.87,9.87,0,0,1-2.08,6.2,13.21,13.21,0,0,1-6.17,4.2A28.89,28.89,0,0,1,456.25,108.26Z" transform="translate(-153.15 -55.7)"/></svg>